<?xml version="1.0" encoding="utf-8"?>
<!-- Generator: Adobe Illustrator 16.0.0, SVG Export Plug-In . SVG Version: 6.00 Build 0)  -->
<!DOCTYPE svg PUBLIC "-//W3C//DTD SVG 1.1//EN" "http://www.w3.org/Graphics/SVG/1.1/DTD/svg11.dtd">
<svg version="1.1" id="Layer_1" xmlns="http://www.w3.org/2000/svg" xmlns:xlink="http://www.w3.org/1999/xlink" x="0px" y="0px"
	 width="2500px" height="1221.243px" viewBox="0 -28.243 2500 1221.243" enable-background="new 0 -28.243 2500 1221.243"
	 xml:space="preserve">
<path fill="#FFE500" d="M1122.123-9L-0.501,401.073l1122.624-198.27V-9z"/>
<path fill="#161D23" d="M1095.732,897.762c0-20.973-14.215-30.451-22.335-33.83c10.15-5.418,16.917-17.6,16.917-29.775
	c0-25.037-16.917-39.248-46.691-39.248h-63.604v150.902h63.608C1076.108,946.486,1095.732,928.217,1095.732,897.762z
	 M1043.627,920.768h-35.864v-42.631h35.864c14.888,0,23.008,7.443,23.008,21.654
	C1066.635,912.648,1057.838,920.768,1043.627,920.768z M1042.95,853.1h-35.188v-32.48h33.835c13.533,0,19.623,5.412,19.623,16.24
	C1061.897,844.303,1058.514,853.1,1042.95,853.1z M1115.356,898.438v-62.256h27.067v60.906c0,18.271,6.767,27.068,20.301,27.068
	c13.538,0,20.3-8.797,20.3-27.068v-60.906h27.067v110.301h-27.067v-8.797c-6.762,7.443-15.563,11.504-26.391,11.504
	C1120.769,948.518,1115.355,917.385,1115.356,898.438L1115.356,898.438z M1530.838,946.486h-27.064V836.188h27.064v9.479
	c6.766-7.449,16.244-11.51,27.744-11.51c26.391,0,40.602,17.6,40.602,50.076v62.254h-27.068V885.58
	c0-18.27-6.09-27.066-19.623-27.066c-13.539,0-20.979,9.479-20.979,27.066v60.906H1530.838L1530.838,946.486z M1262.198,890.318
	v56.164h-27.068V836.182h27.068V890.318z M1286.559,803.701l27.066-13.533v156.314h-27.066V803.701z M1400.24,843.631
	c-6.766-6.768-14.887-10.154-24.359-10.154c-26.396,0-43.309,21.654-43.309,56.164c0,36.547,16.24,58.877,42.631,58.877
	c9.475,0,17.594-3.389,25.039-10.828v8.121h27.066V789.496l-27.066,13.533v40.602H1400.24z M1381.295,923.475
	c-9.475,0-20.979-6.09-20.979-33.834c0-25.709,10.828-30.451,20.301-30.451c10.15,0,16.24,6.092,19.629,10.828v43.307
	c-4.064,4.738-8.803,10.15-18.953,10.15H1381.295z M1993.696,833.477c-8.797,0-17.594,4.064-24.359,10.154v-50.756l-27.068,13.537
	v139.398h27.068v-8.121c6.766,6.768,15.563,10.828,25.037,10.828c27.066,0,42.631-21.654,42.631-58.877
	C2037.004,855.129,2020.764,833.477,1993.696,833.477L1993.696,833.477z M1988.955,858.514c10.15,0,20.305,8.119,20.305,30.455
	c0,23.002-6.768,33.83-20.305,33.83c-10.15,0-16.912-6.768-19.625-10.15V869.34C1974.073,862.574,1980.834,858.514,1988.955,858.514
	L1988.955,858.514z M1684.449,843.631c-6.766-6.768-14.887-10.154-24.359-10.154c-26.391,0-43.309,21.654-43.309,56.164
	c0,36.547,16.24,58.877,42.631,58.877c9.479,0,18.271-3.389,25.037-10.826v2.705c0,12.182,0,28.422-35.188,29.098h-1.354
	l9.475,21.654h0.676c35.861-0.676,53.459-18.27,53.459-54.811V836.184h-27.066v7.447H1684.449z M1684.449,869.34v43.309
	c-4.059,5.414-9.473,10.826-19.623,10.826c-9.479,0-20.305-6.09-20.305-33.834c0-25.709,10.826-30.451,20.305-30.451
	C1674.977,858.514,1681.067,864.604,1684.449,869.34z M1796.104,863.25c8.797-4.736,16.918-7.443,28.42-7.443
	c12.857,0,19.629,5.414,19.629,15.564v7.447c-6.09-3.389-15.568-5.418-23.684-5.418c-20.301,0-43.984,9.479-43.984,35.865
	c0,28.42,22.334,39.248,40.605,39.248c7.443,0,18.947-2.707,26.391-11.51v8.797h27.066v-74.436c0-23.68-16.916-38.57-44.664-38.57
	c-14.883,0-28.422,3.383-41.279,10.826L1796.104,863.25L1796.104,863.25z M1804.223,909.941c0-9.473,6.768-15.564,18.947-15.564
	c8.121,0,14.889,1.354,21.654,5.414v14.887c-3.383,6.092-11.504,11.508-21.654,11.508
	C1810.99,926.186,1804.223,920.092,1804.223,909.941L1804.223,909.941z M2124.969,914.002c-4.732,4.736-11.504,9.479-21.654,9.479
	c-5.412,0-23.006-2.031-24.359-24.361h67.668v-8.121c0-35.188-18.271-57.521-46.016-57.521c-28.42,0-49.396,24.365-49.396,57.521
	c0,34.512,20.301,57.52,52.104,57.52c14.211,0,28.422-5.418,38.572-17.598L2124.969,914.002z M2078.959,879.49
	c0.672-13.533,8.793-23.008,20.301-23.008c14.211,0,20.301,11.51,20.977,23.008H2078.959z M2387.528,914.002
	c-4.736,4.736-11.502,9.479-21.652,9.479c-5.418,0-23.008-2.031-24.365-24.361h67.672v-8.121c0-35.188-18.273-57.521-46.014-57.521
	c-28.422,0-49.398,24.365-49.398,57.521c0,34.512,20.301,57.52,52.105,57.52c14.211,0,28.42-5.418,39.248-17.598l-17.594-16.918
	H2387.528z M2341.514,879.49c0.672-13.533,8.793-23.008,20.301-23.008c14.211,0,20.301,11.51,20.973,23.008H2341.514
	L2341.514,879.49z M2275.871,907.912c0,9.477,3.387,14.887,11.508,14.887c5.414,0,11.504-2.031,16.24-4.736l-3.389,25.713
	c-6.09,3.385-14.209,5.414-23.002,5.414c-21.654,0-29.098-18.271-29.098-33.83V861.9h-16.24v-25.713h16.912v-28.422l27.068-13.533
	v41.949h25.037v25.715h-25.037V907.912L2275.871,907.912z M2223.094,943.775c-6.09,3.385-14.211,5.414-23.008,5.414
	c-21.654,0-29.098-18.271-29.098-33.83V861.9h-16.918v-25.713h16.918v-28.422l27.068-13.533v41.951h23.006v25.713h-23.006v46.691
	c0,9.475,3.383,14.887,11.504,14.887c5.416,0,11.508-2.029,16.244-4.736L2223.094,943.775z M2491.739,866.633
	c-5.246-4.002-11.676-6.145-18.275-6.09c-13.533,0-19.623,8.121-19.623,25.715v59.549h-27.068V835.51h27.068v9.475
	c6.766-8.121,14.887-12.182,24.359-12.182c7.449,0,15.568,2.703,20.301,6.768L2491.739,866.633L2491.739,866.633z M1262.198,806.412
	v13.535h-27.068v-27.068h27.068V806.412z M1451.67,836.184h27.066v110.299h-27.066V836.184z M1478.737,806.412v13.535h-27.066
	v-27.068h27.066V806.412z M2226.477,1036.482c-6.762-6.768-14.887-10.15-24.361-10.15c-26.391,0-43.307,21.654-43.307,56.164
	c0,36.541,16.24,58.873,42.631,58.873c9.479,0,17.598-3.385,25.037-10.822v8.119h27.068V982.348l-27.068,13.537V1036.482
	L2226.477,1036.482z M2207.526,1116.332c-9.475,0-20.973-6.092-20.973-33.83c0-25.715,10.822-30.451,20.301-30.451
	c10.15,0,16.24,6.09,19.623,10.822v43.309C2222.416,1110.242,2217.676,1116.332,2207.526,1116.332L2207.526,1116.332z
	 M1302.117,1059.49c-5.244-4.004-11.672-6.146-18.27-6.092c-13.535,0-19.625,8.121-19.625,25.711v59.553h-27.067v-110.301h27.067
	v9.475c6.762-8.121,14.883-12.182,24.361-12.182c7.443,0,15.563,2.707,20.301,6.768L1302.117,1059.49L1302.117,1059.49z
	 M1087.607,1028.361h27.068l-31.128,110.301h-23.68l-12.181-46.016c-2.029-8.119-4.736-17.598-6.09-23.684
	c-1.357,4.736-4.061,18.271-6.09,25.037l-12.181,44.666h-23.008l-31.127-110.299h27.739l10.155,41.277
	c1.353,6.768,4.06,18.947,5.413,27.068c1.354-8.121,4.736-20.301,6.767-27.744l11.504-40.602h23.008l11.503,40.602
	c2.03,7.447,4.737,18.947,6.768,27.744c1.354-6.768,3.383-17.6,6.09-27.744l9.469-40.605V1028.361z M1170.168,1026.332
	c-29.093,0-50.07,24.361-50.07,57.518c0,33.158,20.978,57.52,50.07,57.52c29.098,0,50.075-24.361,50.075-57.52
	C1220.243,1050.02,1199.265,1026.332,1170.168,1026.332z M1170.168,1115.658c-13.533,0-22.33-12.855-22.33-31.803
	c0-19.625,8.797-31.801,22.33-31.801c13.538,0,22.335,12.854,22.335,31.801S1183.702,1115.658,1170.168,1115.658z M2092.492,1059.49
	c-5.244-4.004-11.672-6.146-18.27-6.092c-13.533,0-19.625,8.121-19.625,25.711v59.553h-27.066v-110.301h27.066v9.475
	c6.764-8.121,14.883-12.182,24.361-12.182c7.443,0,15.564,2.707,20.301,6.768L2092.492,1059.49L2092.492,1059.49z M1878.66,1028.361
	h27.066l-31.127,110.301h-23.684l-12.182-46.016c-2.029-8.119-4.736-17.598-6.09-23.684c-1.354,4.736-4.061,18.271-6.09,25.037
	l-12.18,44.666h-23.686v-0.676l-31.123-109.623h27.74l10.15,41.277c1.357,6.768,4.061,18.947,5.418,27.068
	c1.354-8.121,4.732-20.301,6.762-27.746l11.508-40.6h23.008l11.504,40.6c2.031,7.449,4.736,18.947,6.768,27.746
	c1.354-6.768,3.383-17.6,6.09-27.746L1878.66,1028.361z M1960.539,1026.332c-29.098,0-50.074,24.361-50.074,57.518
	c0,33.158,20.977,57.52,50.074,57.52s50.074-24.361,50.074-57.52C2010.614,1050.693,1989.637,1026.332,1960.539,1026.332z
	 M1960.539,1115.658c-13.533,0-22.33-12.18-22.33-31.803c0-19.625,8.797-31.801,22.33-31.801c13.537,0,22.33,12.854,22.33,31.801
	S1974.073,1115.658,1960.539,1115.658z M1383.324,1064.902l33.834,73.764h-29.773l-23.008-51.432l-14.211,18.273v33.158H1323.1
	V996.557l27.066-13.533v87.969c3.275-4.59,6.66-9.104,10.15-13.533l21.654-28.42h31.127L1383.324,1064.902L1383.324,1064.902z
	 M1512.567,1138.666H1485.5v-110.305h27.066v9.475c6.768-7.443,16.242-11.504,27.746-11.504c26.391,0,40.6,17.598,40.6,50.074
	v62.256h-27.066v-60.906c0-18.271-6.09-27.068-19.625-27.068c-13.537,0-20.977,9.479-20.977,27.068v60.906h-0.678V1138.666z
	 M1666.18,1036.482c-6.768-6.768-14.887-10.15-24.361-10.15c-26.395,0-43.307,21.654-43.307,56.164
	c0,36.541,16.24,58.873,42.631,58.873c9.473,0,18.27-3.385,25.037-10.824v2.703c0,12.182,0,28.422-35.188,29.098h-1.357
	l9.479,21.654h0.676c35.859-0.678,53.459-18.275,53.459-54.816v-100.15h-27.068V1036.482L1666.18,1036.482z M1666.18,1062.201
	v43.307c-4.061,5.414-9.479,10.824-19.629,10.824c-9.473,0-20.301-6.092-20.301-33.83c0-25.715,10.828-30.451,20.301-30.451
	C1656.701,1051.369,1662.791,1057.459,1666.18,1062.201L1666.18,1062.201z M1433.399,1028.361h27.068v110.305h-27.068V1028.361z
	 M1460.467,999.264v13.539h-27.068v-27.068h27.068V999.264z M2112.789,996.557l27.068-13.533v155.643h-27.068V996.557z
	 M179.498,914.678h205.031V795.582H179.498v-93.383H406.86l-75.108-131.278H9.649v567.745h454.057v-130.605H179.498V914.678
	L179.498,914.678z M766.185,570.921l-96.089,185.413l-96.095-185.413H385.206l198.27,343.756v223.988h169.849V914.678
	L951.59,570.921H766.185z"/>
</svg>
