<?xml version="1.0" encoding="utf-8"?>
<!-- Generator: Adobe Illustrator 25.2.1, SVG Export Plug-In . SVG Version: 6.00 Build 0)  -->
<svg version="1.1" id="Layer_1" xmlns="http://www.w3.org/2000/svg" xmlns:xlink="http://www.w3.org/1999/xlink" x="0px" y="0px"
	 viewBox="0 0 2500 1221.2" style="enable-background:new 0 0 2500 1221.2;" xml:space="preserve">
<style type="text/css">
	.st0{fill:#FFE500;}
	.st1{fill:#FCFCFC;}
</style>
<path class="st0" d="M1122.1,19.2L-0.5,429.3L1122.1,231V19.2z"/>
<path class="st1" d="M1095.7,926c0-21-14.2-30.5-22.3-33.8c10.2-5.4,16.9-17.6,16.9-29.8c0-25-16.9-39.2-46.7-39.2H980v150.9h63.6
	C1076.1,974.7,1095.7,956.5,1095.7,926z M1043.6,949h-35.9v-42.6h35.9c14.9,0,23,7.4,23,21.7C1066.6,940.9,1057.8,949,1043.6,949z
	 M1042.9,881.3h-35.2v-32.5h33.8c13.5,0,19.6,5.4,19.6,16.2C1061.9,872.5,1058.5,881.3,1042.9,881.3z M1115.4,926.7v-62.3h27.1v60.9
	c0,18.3,6.8,27.1,20.3,27.1c13.5,0,20.3-8.8,20.3-27.1v-60.9h27.1v110.3H1183v-8.8c-6.8,7.4-15.6,11.5-26.4,11.5
	C1120.8,976.8,1115.4,945.6,1115.4,926.7L1115.4,926.7z M1530.8,974.7h-27.1V864.4h27.1v9.5c6.8-7.4,16.2-11.5,27.7-11.5
	c26.4,0,40.6,17.6,40.6,50.1v62.3h-27.1v-60.9c0-18.3-6.1-27.1-19.6-27.1c-13.5,0-21,9.5-21,27.1v60.9H1530.8L1530.8,974.7z
	 M1262.2,918.6v56.2h-27.1V864.4h27.1V918.6z M1286.6,831.9l27.1-13.5v156.3h-27.1V831.9z M1400.2,871.9
	c-6.8-6.8-14.9-10.2-24.4-10.2c-26.4,0-43.3,21.7-43.3,56.2c0,36.5,16.2,58.9,42.6,58.9c9.5,0,17.6-3.4,25-10.8v8.1h27.1V817.7
	l-27.1,13.5L1400.2,871.9L1400.2,871.9z M1381.3,951.7c-9.5,0-21-6.1-21-33.8c0-25.7,10.8-30.5,20.3-30.5c10.2,0,16.2,6.1,19.6,10.8
	v43.3C1396.2,946.3,1391.4,951.7,1381.3,951.7L1381.3,951.7L1381.3,951.7z M1993.7,861.7c-8.8,0-17.6,4.1-24.4,10.2v-50.8
	l-27.1,13.5v139.4h27.1v-8.1c6.8,6.8,15.6,10.8,25,10.8c27.1,0,42.6-21.7,42.6-58.9C2037,883.4,2020.8,861.7,1993.7,861.7
	L1993.7,861.7z M1989,886.8c10.2,0,20.3,8.1,20.3,30.5c0,23-6.8,33.8-20.3,33.8c-10.2,0-16.9-6.8-19.6-10.2v-43.3
	C1974.1,890.8,1980.8,886.8,1989,886.8L1989,886.8z M1684.4,871.9c-6.8-6.8-14.9-10.2-24.4-10.2c-26.4,0-43.3,21.7-43.3,56.2
	c0,36.5,16.2,58.9,42.6,58.9c9.5,0,18.3-3.4,25-10.8v2.7c0,12.2,0,28.4-35.2,29.1h-1.4l9.5,21.7h0.7c35.9-0.7,53.5-18.3,53.5-54.8
	V864.4h-27.1L1684.4,871.9L1684.4,871.9L1684.4,871.9z M1684.4,897.6v43.3c-4.1,5.4-9.5,10.8-19.6,10.8c-9.5,0-20.3-6.1-20.3-33.8
	c0-25.7,10.8-30.5,20.3-30.5C1675,886.8,1681.1,892.8,1684.4,897.6z M1796.1,891.5c8.8-4.7,16.9-7.4,28.4-7.4
	c12.9,0,19.6,5.4,19.6,15.6v7.4c-6.1-3.4-15.6-5.4-23.7-5.4c-20.3,0-44,9.5-44,35.9c0,28.4,22.3,39.2,40.6,39.2
	c7.4,0,18.9-2.7,26.4-11.5v8.8h27.1v-74.4c0-23.7-16.9-38.6-44.7-38.6c-14.9,0-28.4,3.4-41.3,10.8L1796.1,891.5L1796.1,891.5z
	 M1804.2,938.2c0-9.5,6.8-15.6,18.9-15.6c8.1,0,14.9,1.4,21.7,5.4v14.9c-3.4,6.1-11.5,11.5-21.7,11.5
	C1811,954.4,1804.2,948.3,1804.2,938.2L1804.2,938.2z M2125,942.2c-4.7,4.7-11.5,9.5-21.7,9.5c-5.4,0-23-2-24.4-24.4h67.7v-8.1
	c0-35.2-18.3-57.5-46-57.5c-28.4,0-49.4,24.4-49.4,57.5c0,34.5,20.3,57.5,52.1,57.5c14.2,0,28.4-5.4,38.6-17.6L2125,942.2z
	 M2079,907.7c0.7-13.5,8.8-23,20.3-23c14.2,0,20.3,11.5,21,23H2079z M2387.5,942.2c-4.7,4.7-11.5,9.5-21.7,9.5
	c-5.4,0-23-2-24.4-24.4h67.7v-8.1c0-35.2-18.3-57.5-46-57.5c-28.4,0-49.4,24.4-49.4,57.5c0,34.5,20.3,57.5,52.1,57.5
	c14.2,0,28.4-5.4,39.2-17.6L2387.5,942.2L2387.5,942.2L2387.5,942.2z M2341.5,907.7c0.7-13.5,8.8-23,20.3-23c14.2,0,20.3,11.5,21,23
	H2341.5L2341.5,907.7z M2275.9,936.2c0,9.5,3.4,14.9,11.5,14.9c5.4,0,11.5-2,16.2-4.7l-3.4,25.7c-6.1,3.4-14.2,5.4-23,5.4
	c-21.7,0-29.1-18.3-29.1-33.8v-53.5h-16.2v-25.7h16.9V836l27.1-13.5v41.9h25v25.7h-25L2275.9,936.2L2275.9,936.2z M2223.1,972
	c-6.1,3.4-14.2,5.4-23,5.4c-21.7,0-29.1-18.3-29.1-33.8v-53.5h-16.9v-25.7h16.9V836l27.1-13.5v42h23v25.7h-23v46.7
	c0,9.5,3.4,14.9,11.5,14.9c5.4,0,11.5-2,16.2-4.7L2223.1,972z M2491.7,894.9c-5.2-4-11.7-6.1-18.3-6.1c-13.5,0-19.6,8.1-19.6,25.7
	V974h-27.1V863.8h27.1v9.5c6.8-8.1,14.9-12.2,24.4-12.2c7.4,0,15.6,2.7,20.3,6.8L2491.7,894.9L2491.7,894.9z M1262.2,834.7v13.5
	h-27.1v-27.1h27.1V834.7z M1451.7,864.4h27.1v110.3h-27.1V864.4z M1478.7,834.7v13.5h-27.1v-27.1h27.1V834.7z M2226.5,1064.7
	c-6.8-6.8-14.9-10.2-24.4-10.2c-26.4,0-43.3,21.7-43.3,56.2c0,36.5,16.2,58.9,42.6,58.9c9.5,0,17.6-3.4,25-10.8v8.1h27.1v-156.3
	l-27.1,13.5L2226.5,1064.7L2226.5,1064.7z M2207.5,1144.6c-9.5,0-21-6.1-21-33.8c0-25.7,10.8-30.5,20.3-30.5
	c10.1,0,16.2,6.1,19.6,10.8v43.3C2222.4,1138.5,2217.7,1144.6,2207.5,1144.6L2207.5,1144.6z M1302.1,1087.7
	c-5.2-4-11.7-6.1-18.3-6.1c-13.5,0-19.6,8.1-19.6,25.7v59.6h-27.1v-110.3h27.1v9.5c6.8-8.1,14.9-12.2,24.4-12.2
	c7.4,0,15.6,2.7,20.3,6.8L1302.1,1087.7L1302.1,1087.7z M1087.6,1056.6h27.1l-31.1,110.3h-23.7l-12.2-46c-2-8.1-4.7-17.6-6.1-23.7
	c-1.4,4.7-4.1,18.3-6.1,25l-12.2,44.7h-23l-31.1-110.3h27.7l10.2,41.3c1.4,6.8,4.1,18.9,5.4,27.1c1.4-8.1,4.7-20.3,6.8-27.7
	l11.5-40.6h23l11.5,40.6c2,7.4,4.7,18.9,6.8,27.7c1.4-6.8,3.4-17.6,6.1-27.7L1087.6,1056.6L1087.6,1056.6L1087.6,1056.6z
	 M1170.2,1054.6c-29.1,0-50.1,24.4-50.1,57.5c0,33.2,21,57.5,50.1,57.5c29.1,0,50.1-24.4,50.1-57.5
	C1220.2,1078.3,1199.3,1054.6,1170.2,1054.6z M1170.2,1143.9c-13.5,0-22.3-12.9-22.3-31.8c0-19.6,8.8-31.8,22.3-31.8
	c13.5,0,22.3,12.9,22.3,31.8S1183.7,1143.9,1170.2,1143.9z M2092.5,1087.7c-5.2-4-11.7-6.1-18.3-6.1c-13.5,0-19.6,8.1-19.6,25.7
	v59.6h-27.1v-110.3h27.1v9.5c6.8-8.1,14.9-12.2,24.4-12.2c7.4,0,15.6,2.7,20.3,6.8L2092.5,1087.7L2092.5,1087.7z M1878.7,1056.6
	h27.1l-31.1,110.3h-23.7l-12.2-46c-2-8.1-4.7-17.6-6.1-23.7c-1.4,4.7-4.1,18.3-6.1,25l-12.2,44.7h-23.7v-0.7l-31.1-109.6h27.7
	l10.2,41.3c1.4,6.8,4.1,18.9,5.4,27.1c1.4-8.1,4.7-20.3,6.8-27.7l11.5-40.6h23l11.5,40.6c2,7.4,4.7,18.9,6.8,27.7
	c1.4-6.8,3.4-17.6,6.1-27.7L1878.7,1056.6z M1960.5,1054.6c-29.1,0-50.1,24.4-50.1,57.5c0,33.2,21,57.5,50.1,57.5
	s50.1-24.4,50.1-57.5C2010.6,1078.9,1989.6,1054.6,1960.5,1054.6z M1960.5,1143.9c-13.5,0-22.3-12.2-22.3-31.8
	c0-19.6,8.8-31.8,22.3-31.8c13.5,0,22.3,12.9,22.3,31.8S1974.1,1143.9,1960.5,1143.9z M1383.3,1093.1l33.8,73.8h-29.8l-23-51.4
	l-14.2,18.3v33.2h-27.1v-142.1l27.1-13.5v88c3.3-4.6,6.7-9.1,10.2-13.5l21.7-28.4h31.1L1383.3,1093.1L1383.3,1093.1z M1512.6,1166.9
	h-27.1v-110.3h27.1v9.5c6.8-7.4,16.2-11.5,27.7-11.5c26.4,0,40.6,17.6,40.6,50.1v62.3h-27.1V1106c0-18.3-6.1-27.1-19.6-27.1
	c-13.5,0-21,9.5-21,27.1v60.9L1512.6,1166.9L1512.6,1166.9L1512.6,1166.9z M1666.2,1064.7c-6.8-6.8-14.9-10.2-24.4-10.2
	c-26.4,0-43.3,21.7-43.3,56.2c0,36.5,16.2,58.9,42.6,58.9c9.5,0,18.3-3.4,25-10.8v2.7c0,12.2,0,28.4-35.2,29.1h-1.4l9.5,21.7h0.7
	c35.9-0.7,53.5-18.3,53.5-54.8v-100.2h-27.1L1666.2,1064.7L1666.2,1064.7z M1666.2,1090.4v43.3c-4.1,5.4-9.5,10.8-19.6,10.8
	c-9.5,0-20.3-6.1-20.3-33.8c0-25.7,10.8-30.5,20.3-30.5C1656.7,1079.6,1662.8,1085.7,1666.2,1090.4L1666.2,1090.4z M1433.4,1056.6
	h27.1v110.3h-27.1V1056.6z M1460.5,1027.5v13.5h-27.1V1014h27.1V1027.5z M2112.8,1024.8l27.1-13.5v155.6h-27.1V1024.8z M179.5,942.9
	h205V823.8h-205v-93.4h227.4l-75.1-131.3H9.6v567.7h454.1v-130.6H179.5V942.9L179.5,942.9z M766.2,599.2l-96.1,185.4L574,599.2
	H385.2l198.3,343.8v224h169.8v-224l198.3-343.8H766.2z"/>
</svg>
